<?xml version="1.0" standalone="no"?><!DOCTYPE svg PUBLIC "-//W3C//DTD SVG 1.1//EN" "http://www.w3.org/Graphics/SVG/1.1/DTD/svg11.dtd"><svg t="1703145146877" class="icon" viewBox="0 0 1024 1024" version="1.1" xmlns="http://www.w3.org/2000/svg" p-id="1941" xmlns:xlink="http://www.w3.org/1999/xlink" width="200" height="200"><path d="M811.4176 607.1808H581.632V427.0592h61.44v118.6816h168.3456z" fill="#333333" p-id="1942" data-spm-anchor-id="a313x.manage_type_myprojects.0.i14.1ec43a81Ef5fnj" class="selected"></path><path d="M704.7168 920.576c-57.9072 0-108.3392-35.84-128.256-88.2176H478.0032a137.04704 137.04704 0 0 1-128.256 88.2176c-57.9072 0-108.3392-35.84-128.256-88.2176H104.8576c-34.6624 0-62.8736-28.2112-62.8736-62.8736V187.4432c0-34.6624 28.2112-62.8736 62.8736-62.8736h479.4368c34.6624 0 62.8736 28.2112 62.8736 62.8736v78.6944h66.7648c150.9888 0 273.8688 122.8288 273.8688 273.8688v229.4784c0 34.6624-28.2112 62.8736-62.8736 62.8736h-91.9552a137.04704 137.04704 0 0 1-128.256 88.2176z m-275.8144-149.6576h196.608l4.4544 25.4464c6.3488 36.4032 37.7856 62.8224 74.752 62.8224s68.352-26.4192 74.752-62.8224l4.4544-25.4464h141.056c0.768 0 1.4336-0.6656 1.4336-1.4336v-229.4784c0-117.1456-95.2832-212.4288-212.4288-212.4288h-128.2048V187.4432c0-0.768-0.6656-1.4336-1.4336-1.4336H104.8576c-0.768 0-1.4336 0.6656-1.4336 1.4336v582.0416c0 0.768 0.6656 1.4336 1.4336 1.4336h165.6832l4.4544 25.4464c6.3488 36.4032 37.7856 62.8224 74.752 62.8224s68.352-26.4192 74.752-62.8224l4.4032-25.4464z" fill="#333333" p-id="1943" data-spm-anchor-id="a313x.manage_type_myprojects.0.i12.1ec43a81Ef5fnj" class="selected"></path></svg>