<?xml version="1.0" standalone="no"?><!DOCTYPE svg PUBLIC "-//W3C//DTD SVG 1.1//EN" "http://www.w3.org/Graphics/SVG/1.1/DTD/svg11.dtd"><svg t="1703145047955" class="icon" viewBox="0 0 1024 1024" version="1.1" xmlns="http://www.w3.org/2000/svg" p-id="1429" xmlns:xlink="http://www.w3.org/1999/xlink" width="200" height="200"><path d="M349.090909 104.727273m46.545455 0l325.818181 0q46.545455 0 46.545455 46.545454l0 93.090909q0 46.545455-46.545455 46.545455l-325.818181 0q-46.545455 0-46.545455-46.545455l0-93.090909q0-46.545455 46.545455-46.545454Z" fill="#E5E5E5" p-id="1430"></path><path d="M860.858182 965.585455h-698.181818a46.545455 46.545455 0 0 1-46.545455-46.545455v-744.727273a46.545455 46.545455 0 0 1 46.545455-46.545454H302.545455V104.727273a46.545455 46.545455 0 0 1 46.545454-46.545455h325.818182a46.545455 46.545455 0 0 1 46.545454 46.545455v23.04h139.403637a46.545455 46.545455 0 0 1 46.545454 46.545454v744.727273a46.545455 46.545455 0 0 1-46.545454 46.545455zM674.909091 104.727273H349.090909v93.090909h325.818182v-93.090909z m185.949091 69.585454H721.454545V197.818182a46.545455 46.545455 0 0 1-46.545454 46.545454H349.090909a46.545455 46.545455 0 0 1-46.545454-46.545454V174.312727H162.676364v744.727273h698.181818v-744.727273zM302.545455 384h418.90909a23.272727 23.272727 0 0 1 0 46.545455H302.545455a23.272727 23.272727 0 0 1 0-46.545455z m0 186.181818h418.90909a23.272727 23.272727 0 0 1 0 46.545455H302.545455a23.272727 23.272727 0 0 1 0-46.545455z m0 186.181818h232.727272a23.272727 23.272727 0 0 1 0 46.545455H302.545455a23.272727 23.272727 0 0 1 0-46.545455z" fill="#1C1C1C" p-id="1431" data-spm-anchor-id="a313x.manage_type_myprojects.0.i0.1ec43a81Ef5fnj" class="selected"></path></svg>