<?xml version="1.0" standalone="no"?><!DOCTYPE svg PUBLIC "-//W3C//DTD SVG 1.1//EN" "http://www.w3.org/Graphics/SVG/1.1/DTD/svg11.dtd"><svg t="1703235982459" class="icon" viewBox="0 0 1024 1024" version="1.1" xmlns="http://www.w3.org/2000/svg" p-id="8149" xmlns:xlink="http://www.w3.org/1999/xlink" width="200" height="200"><path d="M528.58 622.07q-17.88 0-28.15 13.27t-10.28 34.37q0 20.82 10 34t27.6 13.29q17.87 0 27.83-12.67t9.94-34q0-22.31-9.66-35.25t-27.28-13.01z" fill="#eb3742" p-id="8150"></path><path d="M874.24 586.38C865.3 486.14 779 409.72 772.85 311.4c-29.19 53.77-32.26 89.1-35.33 142.87-89.1-110.61-182.81-256.55-161.3-390.19 0 0-170.52 50.69-239.65 316.45-43-35.33-39.94-110.61-18.43-155.15C271 257.91-3.28 574.56 257.88 838.05 311.82 891.76 402.54 962 522.43 959.86h0.67c8.63 0.41 166.84 2 294.61-148.69 59.68-86.17 64.9-130.88 56.53-224.79zM433.76 731.65a9.2 9.2 0 0 1-9.2 9.2h-12a9.2 9.2 0 0 1-9.21-9.2V682h-60.81v49.69a9.2 9.2 0 0 1-9.21 9.2h-12a9.2 9.2 0 0 1-9.2-9.2V605.57a7.45 7.45 0 0 1 7.45-7.45h15.5a7.45 7.45 0 0 1 7.46 7.45v50.14h60.81v-50.14a7.45 7.45 0 0 1 7.46-7.45h15.5a7.45 7.45 0 0 1 7.45 7.45zM578 722.56q-19.38 20.78-50.81 20.78-30.69 0-49.86-20.14t-19.16-51.83q0-33.54 19.58-54.6t51.74-21q30.6 0 49.25 20.36t18.66 52.34q0.01 33.31-19.4 54.09z m133.86-105.21a5.65 5.65 0 0 1-5.65 5.65h-35.08v110a7.84 7.84 0 0 1-7.84 7.84h-14.83a7.84 7.84 0 0 1-7.84-7.84V623h-33.44a7.19 7.19 0 0 1-7.19-7.19V605.3a7.18 7.18 0 0 1 7.19-7.18h99a5.64 5.64 0 0 1 5.65 5.64z" fill="#eb3742" p-id="8151"></path><path d="M737.52 454.27C705.06 414 672 369 644.11 321.63 442.76 344.42 286.3 515.32 286.3 722.76a402.15 402.15 0 0 0 38.25 171.73c51.64 36.33 118.34 66.76 197.88 65.37h0.67c8.63 0.41 166.84 2 294.61-148.69 59.68-86.23 64.9-130.89 56.53-224.8-8.44-94.55-85.68-167.91-99.59-258.44q-4.65-1-9.34-1.87c-22.23 45.94-25.01 79.48-27.79 128.21zM433.76 731.65a9.2 9.2 0 0 1-9.2 9.2h-12a9.2 9.2 0 0 1-9.21-9.2V682h-60.81v49.69a9.2 9.2 0 0 1-9.21 9.2h-12a9.2 9.2 0 0 1-9.2-9.2V605.57a7.45 7.45 0 0 1 7.45-7.45h15.5a7.45 7.45 0 0 1 7.46 7.45v50.14h60.81v-50.14a7.45 7.45 0 0 1 7.46-7.45h15.5a7.45 7.45 0 0 1 7.45 7.45zM578 722.56q-19.38 20.78-50.81 20.78-30.69 0-49.86-20.14t-19.16-51.83q0-33.54 19.58-54.6t51.74-21q30.6 0 49.25 20.36t18.66 52.34q0.01 33.31-19.4 54.09z m133.86-105.21a5.65 5.65 0 0 1-5.65 5.65h-35.08v110a7.84 7.84 0 0 1-7.84 7.84h-14.83a7.84 7.84 0 0 1-7.84-7.84V623h-33.44a7.19 7.19 0 0 1-7.19-7.19V605.3a7.18 7.18 0 0 1 7.19-7.18h99a5.64 5.64 0 0 1 5.65 5.64z" fill="#eb3742" p-id="8152"></path><path d="M528.58 622.07q-17.88 0-28.15 13.27t-10.28 34.37q0 20.82 10 34t27.6 13.29q17.87 0 27.83-12.67t9.94-34q0-22.31-9.66-35.25t-27.28-13.01z" fill="#eb3742" p-id="8153"></path><path d="M874.24 586.38c-5.84-65.46-44.67-120.77-72.62-178.64a404 404 0 0 0-61.32 8.36c-1.21 11.93-2 24.45-2.78 38.17Q725.27 439.06 713 423c-137.63 40-244.93 151.3-279.24 291.26v17.39a9.19 9.19 0 0 1-5.43 8.38 406.31 406.31 0 0 0 19.11 211.62 299.75 299.75 0 0 0 75 8.21h0.67c8.63 0.41 166.84 2 294.61-148.69 59.67-86.17 64.89-130.88 56.52-224.79zM578 722.56q-19.38 20.78-50.81 20.78-30.69 0-49.86-20.14t-19.16-51.83q0-33.54 19.58-54.6t51.74-21q30.6 0 49.25 20.36t18.66 52.34q0.01 33.31-19.4 54.09z m133.86-105.21a5.65 5.65 0 0 1-5.65 5.65h-35.08v110a7.84 7.84 0 0 1-7.84 7.84h-14.83a7.84 7.84 0 0 1-7.84-7.84V623h-33.44a7.19 7.19 0 0 1-7.19-7.19V605.3a7.18 7.18 0 0 1 7.19-7.18h99a5.64 5.64 0 0 1 5.65 5.64z" fill="#eb3742" p-id="8154"></path><path d="M711.86 615.36v2a5.65 5.65 0 0 1-5.65 5.65h-1.35a404.54 404.54 0 0 0-33.73 43.33V733a7.84 7.84 0 0 1-7.84 7.84h-14.83a7.84 7.84 0 0 1-7.84-7.84v-13a402.12 402.12 0 0 0-38.29 171.83A407.43 407.43 0 0 0 606.2 948c59-15.85 140-52.48 211.51-136.78 59.68-86.23 64.9-130.89 56.53-224.8-2.18-24.38-8.93-47.34-18-69.55a404.38 404.38 0 0 0-144.38 98.49z" fill="#eb3742" p-id="8155"></path><path d="M604.36 421.12c0 13.65-40.9 3.37-91.35 3.52s-91.33 10.66-91.37-3 40.81-33.29 91.26-33.44 91.42 19.27 91.46 32.92z" fill="#eb3742" p-id="8156"></path></svg>