<?xml version="1.0" standalone="no"?><!DOCTYPE svg PUBLIC "-//W3C//DTD SVG 1.1//EN" "http://www.w3.org/Graphics/SVG/1.1/DTD/svg11.dtd"><svg t="1702271466469" class="icon" viewBox="0 0 1024 1024" version="1.1" xmlns="http://www.w3.org/2000/svg" p-id="1985" xmlns:xlink="http://www.w3.org/1999/xlink" width="200" height="200"><path d="M341.333333 405.333333h341.333334c12.8 0 21.333333-8.533333 21.333333-21.333333s-8.533333-21.333333-21.333333-21.333333H341.333333c-12.8 0-21.333333 8.533333-21.333333 21.333333s10.666667 21.333333 21.333333 21.333333zM341.333333 533.333333h256c12.8 0 21.333333-8.533333 21.333334-21.333333s-8.533333-21.333333-21.333334-21.333333H341.333333c-12.8 0-21.333333 8.533333-21.333333 21.333333s10.666667 21.333333 21.333333 21.333333z" fill="#8d8d8d" p-id="1986"></path><path d="M957.866667 448c0-211.2-200.533333-381.866667-445.866667-381.866667-247.466667 0-448 170.666667-448 381.866667 0 108.8 66.133333 217.6 181.333333 294.4 10.666667 6.4 23.466667 4.266667 29.866667-6.4 6.4-10.666667 4.266667-23.466667-6.4-29.866667C209.066667 665.6 106.666667 578.133333 106.666667 448c0-187.733333 181.333333-339.2 405.333333-339.2 221.866667 0 403.2 151.466667 403.2 339.2S733.866667 787.2 512 787.2c-2.133333 0-4.266667 0-6.4 2.133333-10.666667-4.266667-21.333333 2.133333-25.6 12.8-8.533333 25.6-70.4 66.133333-125.866667 96 23.466667-76.8 12.8-89.6 8.533334-96-4.266667-6.4-12.8-10.666667-21.333334-10.666666-12.8 0-21.333333 8.533333-21.333333 21.333333 0 6.4 2.133333 10.666667 6.4 14.933333 0 17.066667-14.933333 66.133333-27.733333 104.533334-2.133333 8.533333 0 17.066667 6.4 23.466666 4.266667 4.266667 8.533333 6.4 14.933333 6.4 2.133333 0 6.4 0 8.533333-2.133333 25.6-10.666667 151.466667-68.266667 185.6-128 245.333333-2.133333 443.733333-172.8 443.733334-384z" fill="#8d8d8d" p-id="1987"></path></svg>