<?xml version="1.0" standalone="no"?><!DOCTYPE svg PUBLIC "-//W3C//DTD SVG 1.1//EN" "http://www.w3.org/Graphics/SVG/1.1/DTD/svg11.dtd"><svg t="1703138096784" class="icon" viewBox="0 0 1024 1024" version="1.1" xmlns="http://www.w3.org/2000/svg" p-id="1301" xmlns:xlink="http://www.w3.org/1999/xlink" width="200" height="200"><path d="M511.7952 79.2576c20.48 0 40.7552 1.4336 61.0304 4.5056 8.192 1.2288 14.9504 7.9872 17.408 16.9984 21.7088 81.7152 95.6416 138.6496 179.6096 138.6496 18.432 0 36.2496-2.6624 52.4288-7.5776 1.8432-0.6144 3.8912-0.8192 5.7344-0.8192 6.3488 0 12.4928 3.072 16.7936 8.3968 27.8528 34.6112 50.176 72.9088 66.1504 113.664 3.2768 8.6016 1.024 18.2272-6.3488 25.3952a186.63424 186.63424 0 0 0-56.1152 133.7344c0 50.9952 20.0704 98.5088 56.32 133.9392 7.168 6.9632 9.4208 16.5888 6.144 24.9856-15.1552 38.5024-35.4304 74.3424-60.6208 106.9056-4.7104 6.144-11.6736 9.6256-18.8416 9.6256-2.048 0-4.096-0.2048-6.144-1.024a184.32 184.32 0 0 0-55.5008-8.3968c-87.04 0-161.5872 59.5968-181.248 145.2032-2.2528 9.6256-8.8064 16.1792-16.384 17.408-20.6848 2.8672-41.1648 4.096-60.6208 4.096-21.9136 0-43.6224-1.6384-64.9216-5.12-8.6016-1.2288-15.1552-8.192-17.408-17.8176-19.8656-84.7872-94.208-143.7696-180.8384-143.7696-18.6368 0-36.4544 2.6624-52.8384 7.7824-1.6384 0.2048-3.4816 0.4096-5.12 0.4096-6.3488 0-12.9024-3.2768-16.9984-8.3968-24.7808-31.9488-45.056-67.584-60.416-106.0864-3.4816-8.6016-1.024-18.2272 6.144-25.1904 36.864-35.6352 57.1392-83.5584 57.1392-134.7584s-20.2752-98.9184-57.1392-134.7584c-7.168-6.9632-9.6256-16.7936-6.3488-25.1904a436.8384 436.8384 0 0 1 64.7168-111.8208c3.8912-4.9152 10.24-7.7824 16.9984-7.7824 2.048 0 4.096 0.2048 6.5536 0.8192 15.5648 4.096 31.3344 6.144 46.8992 6.144 83.3536 0 157.0816-56.5248 179.4048-137.6256 2.4576-9.216 9.4208-16.1792 17.8176-17.408 22.3232-3.2768 44.6464-5.12 66.56-5.12m0-61.44c-25.3952 0-50.7904 2.048-75.776 5.9392-32.3584 5.12-58.7776 29.4912-67.584 62.0544-14.9504 54.272-64.1024 92.16-120.0128 92.16-10.6496 0-21.2992-1.4336-31.5392-4.096-7.168-1.8432-14.5408-2.8672-21.9136-2.8672-25.1904 0-49.152 11.0592-65.1264 30.9248a493.01504 493.01504 0 0 0-73.9328 127.5904c-12.4928 31.5392-4.3008 67.7888 20.6848 91.9552 24.7808 23.9616 38.5024 56.1152 38.5024 90.5216s-13.7216 66.56-38.5024 90.5216c-24.9856 24.1664-33.1776 60.2112-20.6848 91.9552 17.2032 43.4176 40.3456 84.3776 69.0176 121.2416 15.7696 20.48 40.3456 32.1536 65.3312 32.1536 7.5776 0 15.36-1.024 22.9376-3.2768a119.1936 119.1936 0 0 1 35.2256-5.12c57.9584 0 107.7248 39.7312 121.0368 96.4608 7.9872 33.9968 34.6112 59.392 67.9936 64.512 24.576 3.8912 49.5616 5.7344 74.1376 5.7344 22.7328 0 45.8752-1.6384 68.8128-4.7104 33.5872-4.9152 60.416-30.3104 68.1984-64.7168 13.1072-57.344 62.8736-97.28 121.2416-97.28 12.6976 0 25.3952 2.048 37.2736 5.7344 7.9872 2.4576 16.1792 3.6864 24.3712 3.6864 25.6 0 50.9952-12.0832 67.584-33.5872 28.672-37.2736 51.8144-78.2336 69.0176-121.856 12.288-31.5392 4.3008-67.3792-20.48-91.5456A124.43648 124.43648 0 0 1 909.9264 512c0-33.9968 13.312-65.9456 37.6832-89.9072 24.7808-24.1664 32.768-60.0064 20.48-91.5456a496.4352 496.4352 0 0 0-75.5712-129.8432 82.78016 82.78016 0 0 0-87.6544-27.8528c-11.264 3.4816-23.1424 5.12-35.0208 5.12-56.32 0-105.6768-38.2976-120.2176-92.9792-8.8064-32.9728-35.4304-57.344-67.9936-62.0544-23.1424-3.4816-46.4896-5.12-69.8368-5.12z" fill="#2C2C2C" p-id="1302"></path><path d="M512 325.0176c103.0144 0 186.9824 83.968 186.9824 186.9824s-83.968 186.9824-186.9824 186.9824-186.9824-83.968-186.9824-186.9824 83.968-186.9824 186.9824-186.9824m0-61.44c-137.216 0-248.4224 111.2064-248.4224 248.4224S374.784 760.4224 512 760.4224 760.4224 649.216 760.4224 512 649.216 263.5776 512 263.5776z" fill="#333333" p-id="1303" data-spm-anchor-id="a313x.manage_type_myprojects.0.i0.1ec43a81MuT0NI" class="selected"></path><path d="M512 512m-86.016 0a86.016 86.016 0 1 0 172.032 0 86.016 86.016 0 1 0-172.032 0Z" fill="#333333" p-id="1304" data-spm-anchor-id="a313x.manage_type_myprojects.0.i3.1ec43a81MuT0NI" class="selected"></path></svg>