<?xml version="1.0" standalone="no"?><!DOCTYPE svg PUBLIC "-//W3C//DTD SVG 1.1//EN" "http://www.w3.org/Graphics/SVG/1.1/DTD/svg11.dtd"><svg t="1703145064381" class="icon" viewBox="0 0 1024 1024" version="1.1" xmlns="http://www.w3.org/2000/svg" p-id="1583" xmlns:xlink="http://www.w3.org/1999/xlink" width="200" height="200"><path d="M486.35 464.48c-9.69 0-19.24-4.52-25.29-13.02l-49.14-68.98c-9.93-13.94-6.68-33.32 7.27-43.25 13.95-9.94 33.33-6.69 43.25 7.27l49.14 68.98c9.93 13.94 6.68 33.32-7.27 43.25a30.89 30.89 0 0 1-17.96 5.75z" fill="#333333" p-id="1584" data-spm-anchor-id="a313x.manage_type_myprojects.0.i4.1ec43a81Ef5fnj" class="selected"></path><path d="M626.43 516.09H401.57c-17.13 0-31.01-13.88-31.01-31.01 0-17.13 13.88-31.01 31.01-31.01h224.86c17.13 0 31.01 13.88 31.01 31.01 0 17.13-13.88 31.01-31.01 31.01zM626.43 600.05H401.57c-17.13 0-31.01-13.88-31.01-31.01s13.88-31.01 31.01-31.01h224.86c17.13 0 31.01 13.88 31.01 31.01s-13.88 31.01-31.01 31.01z" p-id="1585"></path><path d="M529.54 511.09a30.89 30.89 0 0 1-17.96-5.75c-13.95-9.93-17.2-29.3-7.27-43.25l79.35-111.42c9.93-13.95 29.31-17.2 43.25-7.27 13.95 9.93 17.2 29.3 7.27 43.25l-79.35 111.42c-6.05 8.5-15.6 13.02-25.29 13.02z" p-id="1586"></path><path d="M514.73 709.2c-17.13 0-31.01-13.88-31.01-31.01V496.75c0-17.13 13.88-31.01 31.01-31.01 17.13 0 31.01 13.88 31.01 31.01v181.44c0 17.13-13.88 31.01-31.01 31.01zM98.72 569.18c-16.22 0-29.87-12.61-30.92-29.04-0.62-9.64-0.93-19.35-0.93-29.15 0-32.17 3.43-64.25 10.2-95.38 3.64-16.73 20.21-27.34 36.9-23.72 16.74 3.64 27.35 20.16 23.72 36.9-5.83 26.79-8.78 54.45-8.78 82.19 0 8.46 0.27 16.86 0.81 25.19 1.09 17.09-11.88 31.83-28.98 32.93-0.68 0.06-1.35 0.08-2.02 0.08zM138.95 722.47c-11.54 0-22.63-6.47-27.97-17.57a446.476 446.476 0 0 1-22.93-57.49c-5.22-16.32 3.77-33.77 20.08-39 16.34-5.18 33.77 3.78 39 20.08a382.459 382.459 0 0 0 19.74 49.49c7.43 15.44 0.94 33.97-14.49 41.4-4.33 2.1-8.91 3.09-13.43 3.09z" p-id="1587"></path><path d="M514 958.13c-136.73 0-264.14-61.34-349.55-168.29-10.69-13.39-8.51-32.9 4.88-43.58 13.4-10.7 32.91-8.51 43.58 4.88C286.49 843.26 396.23 896.1 514 896.1c148.17 0 284.89-86.58 348.3-220.59 7.33-15.48 25.83-22.09 41.3-14.77 15.49 7.33 22.1 25.83 14.77 41.3C844.74 857.62 686.03 958.13 514 958.13zM929.57 564.02c-0.52 0-1.03-0.01-1.55-0.04-17.11-0.85-30.3-15.41-29.44-32.52 0.33-6.77 0.52-13.6 0.52-20.46 0-212.35-172.75-385.1-385.1-385.1-129.61 0-249.75 64.62-321.39 172.85-9.46 14.28-28.74 18.18-42.98 8.75-14.29-9.46-18.2-28.7-8.75-42.98C224.03 138.88 363.52 63.87 514 63.87c246.54 0 447.13 200.59 447.13 447.13 0 7.9-0.22 15.75-0.61 23.55-0.82 16.58-14.53 29.47-30.95 29.47z" p-id="1588"></path><path d="M168.7 320.16c-13.76 0-26.32-9.22-29.98-23.15-4.35-16.57 5.55-33.53 22.12-37.87l149.51-39.24c16.55-4.33 33.53 5.55 37.87 22.12 4.35 16.57-5.55 33.53-22.12 37.87l-149.51 39.24c-2.63 0.69-5.29 1.03-7.89 1.03zM728.21 762.76c-13.76 0-26.32-9.22-29.98-23.15-4.35-16.57 5.55-33.53 22.12-37.87l149.52-39.24c16.57-4.37 33.53 5.55 37.87 22.12 4.35 16.57-5.55 33.53-22.12 37.87L736.1 761.73c-2.63 0.7-5.29 1.03-7.89 1.03z" p-id="1589"></path></svg>