<?xml version="1.0" standalone="no"?><!DOCTYPE svg PUBLIC "-//W3C//DTD SVG 1.1//EN" "http://www.w3.org/Graphics/SVG/1.1/DTD/svg11.dtd"><svg t="1703141019175" class="icon" viewBox="0 0 1024 1024" version="1.1" xmlns="http://www.w3.org/2000/svg" p-id="2949" data-spm-anchor-id="a313x.search_index.0.i4.143f3a81JyU16t" xmlns:xlink="http://www.w3.org/1999/xlink" width="200" height="200"><path d="M818.2 617.9H688.6c-60.7 0-110.1-49.4-110.1-110.1s49.4-110.1 110.1-110.1h129.5c13.2 0 24 10.7 24 24 0 13.2-10.7 24-24 24H688.6c-34.2 0-62.1 27.9-62.1 62.1s27.9 62.1 62.1 62.1h129.5c13.2 0 24 10.7 24 24s-10.7 24-23.9 24z" fill="#200E32" p-id="2950"></path><path d="M703.3 529.8h-10c-13.2 0-24-10.7-24-24s10.7-24 24-24h10c13.2 0 24 10.7 24 24s-10.7 24-24 24z" fill="#200E32" p-id="2951"></path><path d="M650.3 818.8H373.7c-105.8 0-191.9-86.1-191.9-191.9V397.2c0-105.8 86.1-191.9 191.9-191.9h276.6c105.8 0 191.9 86.1 191.9 191.9v229.7c0 105.8-86.1 191.9-191.9 191.9zM373.7 253.2c-79.4 0-143.9 64.6-143.9 143.9v229.7c0 79.4 64.6 143.9 143.9 143.9h276.6c79.4 0 143.9-64.6 143.9-143.9V397.1c0-79.4-64.6-143.9-143.9-143.9H373.7z" fill="#333333" p-id="2952" data-spm-anchor-id="a313x.search_index.0.i0.143f3a81JyU16t" class="selected"></path><path d="M523.7 398.4H350.9c-13.2 0-24-10.7-24-24s10.7-24 24-24h172.8c13.2 0 24 10.7 24 24s-10.7 24-24 24z" fill="#333333" opacity=".4" p-id="2953" data-spm-anchor-id="a313x.search_index.0.i2.143f3a81JyU16t" class="selected"></path></svg>